<?xml version="1.0" encoding="UTF-8" standalone="no"?>
<!DOCTYPE svg PUBLIC "-//W3C//DTD SVG 1.1//EN" "http://www.w3.org/Graphics/SVG/1.1/DTD/svg11.dtd">
<svg width="100%" height="100%" viewBox="0 0 1301 2160" version="1.1" xmlns="http://www.w3.org/2000/svg" xmlns:xlink="http://www.w3.org/1999/xlink" xml:space="preserve" xmlns:serif="http://www.serif.com/" style="fill-rule:evenodd;clip-rule:evenodd;stroke-linecap:round;stroke-linejoin:round;stroke-miterlimit:1.5;">
    <g transform="matrix(1.24408,0,0,1.24408,-2468.26,-797.097)">
        <g>
            <g transform="matrix(1,0,0,1,0,-106.144)">
                <g transform="matrix(1,0,0,1,0,-2443.86)">
                    <path d="M2329.73,4211L2329.73,3981C2329.73,3981 2241,3975.86 2241,3768" style="fill:none;stroke:white;stroke-width:20.1px;"/>
                </g>
                <g transform="matrix(1,0,0,1,0,-2443.86)">
                    <path d="M2241,3768C2241,3768 2241.16,3640.51 2257,3630" style="fill:none;stroke:white;stroke-width:20.1px;"/>
                </g>
            </g>
            <g transform="matrix(-1,0,0,1,5014.73,-106.144)">
                <g transform="matrix(1,0,0,1,0,-2443.86)">
                    <path d="M2329.73,4211L2329.73,3981C2329.73,3981 2241,3975.86 2241,3768" style="fill:none;stroke:white;stroke-width:20.1px;"/>
                </g>
                <g transform="matrix(1,0,0,1,0,-2443.86)">
                    <path d="M2241,3768C2241,3768 2241.16,3640.51 2257,3630" style="fill:none;stroke:white;stroke-width:20.1px;"/>
                </g>
            </g>
            <g transform="matrix(1,0,0,1,-26.2658,-106.144)">
                <g transform="matrix(1,0,0,0.596774,44.3669,-894.211)">
                    <path d="M2241,3486C2241,3486 2241.39,3610 2303,3610C2364.61,3610 2365,3486 2365,3486" style="fill:none;stroke:white;stroke-width:24.4px;"/>
                </g>
                <g transform="matrix(1,0,0,0.596774,168.367,-894.211)">
                    <path d="M2241,3486C2241,3486 2241.39,3610 2303,3610C2364.61,3610 2365,3486 2365,3486" style="fill:none;stroke:white;stroke-width:24.4px;"/>
                </g>
                <g transform="matrix(1,0,0,0.596774,292.367,-894.211)">
                    <path d="M2241,3486C2241,3486 2241.39,3610 2303,3610C2364.61,3610 2365,3486 2365,3486" style="fill:none;stroke:white;stroke-width:24.4px;"/>
                </g>
                <g transform="matrix(1,0,0,0.596774,416.367,-894.211)">
                    <path d="M2241,3486C2241,3486 2241.39,3610 2303,3610C2364.61,3610 2365,3486 2365,3486" style="fill:none;stroke:white;stroke-width:24.4px;"/>
                </g>
            </g>
            <g>
                <g transform="matrix(1.40055,0.606172,-0.361748,0.835812,275.51,-2912.82)">
                    <path d="M2241,3486C2241,3486 2241.39,3610 2303,3610C2364.61,3610 2365,3486 2365,3486" style="fill:none;stroke:white;stroke-width:15.99px;"/>
                </g>
                <g transform="matrix(0.535568,1.42904,-0.852813,0.319613,3875.92,-3146.45)">
                    <path d="M2241,3486C2241,3486 2241.39,3610 2303,3610C2364.61,3610 2365,3486 2365,3486" style="fill:none;stroke:white;stroke-width:15.99px;"/>
                </g>
                <g transform="matrix(-0.0735002,1.52433,-0.909681,-0.043863,5445.52,-2281.66)">
                    <path d="M2241,3486C2241,3486 2241.39,3610 2303,3610C2364.61,3610 2365,3486 2365,3486" style="fill:none;stroke:white;stroke-width:15.99px;"/>
                </g>
                <g transform="matrix(-0.984366,1.16619,-0.695955,-0.587444,6861.54,269.328)">
                    <path d="M2241,3486C2241,3486 2241.39,3610 2303,3610C2364.61,3610 2365,3486 2365,3486" style="fill:none;stroke:white;stroke-width:15.99px;"/>
                </g>
                <g transform="matrix(-1.46372,0.431861,-0.257723,-0.873511,6589,2856.05)">
                    <path d="M2241,3486C2241,3486 2241.39,3610 2303,3610C2364.61,3610 2365,3486 2365,3486" style="fill:none;stroke:white;stroke-width:15.99px;"/>
                </g>
                <g transform="matrix(-1.40555,0.594487,0.354774,0.838796,4771.91,-2895.63)">
                    <path d="M2241,3486C2241,3486 2241.39,3610 2303,3610C2364.61,3610 2365,3486 2365,3486" style="fill:none;stroke:white;stroke-width:15.99px;"/>
                </g>
                <g transform="matrix(-0.547451,1.42453,0.850122,0.326704,1173.57,-3159.24)">
                    <path d="M2241,3486C2241,3486 2241.39,3610 2303,3610C2364.61,3610 2365,3486 2365,3486" style="fill:none;stroke:white;stroke-width:15.99px;"/>
                </g>
                <g transform="matrix(0.0608028,1.52489,0.910015,-0.0362855,-403.181,-2307.54)">
                    <path d="M2241,3486C2241,3486 2241.39,3610 2303,3610C2364.61,3610 2365,3486 2365,3486" style="fill:none;stroke:white;stroke-width:15.99px;"/>
                </g>
                <g transform="matrix(0.97462,1.17435,0.700823,-0.581628,-1840.39,231.557)">
                    <path d="M2241,3486C2241,3486 2241.39,3610 2303,3610C2364.61,3610 2365,3486 2365,3486" style="fill:none;stroke:white;stroke-width:15.99px;"/>
                </g>
                <g transform="matrix(1.46007,0.444036,0.264989,-0.871335,-1589.41,2820.46)">
                    <path d="M2241,3486C2241,3486 2241.39,3610 2303,3610C2364.61,3610 2365,3486 2365,3486" style="fill:none;stroke:white;stroke-width:15.99px;"/>
                </g>
                <g transform="matrix(1.5261,1.11022e-16,1.38778e-16,-0.910738,-1007.24,3956.57)">
                    <path d="M2241,3486C2241,3486 2241.39,3610 2303,3610C2364.61,3610 2365,3486 2365,3486" style="fill:none;stroke:white;stroke-width:15.99px;"/>
                </g>
            </g>
            <g transform="matrix(1,0,0,1,0,-2443.86)">
                <path d="M2241,3661.86L2773.73,3661.86" style="fill:none;stroke:white;stroke-width:20.1px;"/>
            </g>
            <g transform="matrix(-1,1.22465e-16,-1.22465e-16,-1,4794.08,5032.36)">
                <path d="M2494,3814.36L2329.73,3814.36L2345.45,3725.86L2478.29,3725.86L2494,3814.36Z" style="fill:none;stroke:white;stroke-width:20.1px;"/>
            </g>
            <g transform="matrix(-1,1.22465e-16,-1.22465e-16,-1,5039.08,5032.36)">
                <path d="M2494,3814.36L2329.73,3814.36L2345.45,3725.86L2478.29,3725.86L2494,3814.36Z" style="fill:none;stroke:white;stroke-width:20.1px;"/>
            </g>
            <g transform="matrix(1,0,0,1,0,-2443.86)">
                <path d="M2329.73,4104.86L2329.73,4824.86" style="fill:none;stroke:white;stroke-width:20.1px;"/>
            </g>
            <g transform="matrix(1,0,0,1,355.266,-2443.86)">
                <path d="M2329.73,4104.86L2329.73,4824.86" style="fill:none;stroke:white;stroke-width:20.1px;"/>
            </g>
            <g transform="matrix(1.0439,0,0,0.560111,1867.95,907.247)">
                <path d="M508,861C508,901.869 554.389,935 611.612,935C668.835,935 715.224,901.869 715.224,861L689.321,861C689.321,891.652 654.778,911.5 611.86,911.5C568.943,911.5 533.903,891.652 533.903,861C533.903,839.387 508.28,833.054 508,861Z" style="fill:white;"/>
            </g>
            <g transform="matrix(-1.0439,0,0,0.560111,3145.59,907.247)">
                <path d="M508,861C508,901.869 554.389,935 611.612,935C668.835,935 715.224,901.869 715.224,861L689.321,861C689.321,891.652 654.778,911.5 611.86,911.5C568.943,911.5 533.903,891.652 533.903,861C533.903,839.387 508.28,833.054 508,861Z" style="fill:white;"/>
            </g>
        </g>
    </g>
</svg>
