<?xml version="1.0" encoding="UTF-8" standalone="no"?>
<!DOCTYPE svg PUBLIC "-//W3C//DTD SVG 1.1//EN" "http://www.w3.org/Graphics/SVG/1.1/DTD/svg11.dtd">
<svg width="100%" height="100%" viewBox="0 0 5721 1080" version="1.1" xmlns="http://www.w3.org/2000/svg" xmlns:xlink="http://www.w3.org/1999/xlink" xml:space="preserve" xmlns:serif="http://www.serif.com/" style="fill-rule:evenodd;clip-rule:evenodd;stroke-linejoin:round;stroke-miterlimit:1.41421;">
    <g transform="matrix(1,0,0,1,0,-1340)">
        <g id="Artboard2" transform="matrix(2.97969,0,0,1,0,1340)">
            <rect x="0" y="0" width="1920" height="1080" style="fill:none;"/>
            <clipPath id="_clip1">
                <rect x="0" y="0" width="1920" height="1080"/>
            </clipPath>
            <g clip-path="url(#_clip1)">
                <g transform="matrix(0.56457,0,0,-1.68224,-415.336,1080)">
                    <clipPath id="_clip2">
                        <rect x="756" y="0" width="1121" height="642"/>
                    </clipPath>
                    <g clip-path="url(#_clip2)">
                        <g transform="matrix(1,0,0,1,56,0)">
                            <path d="M745,0L700,0L1107,642L1152,642L745,0Z" style="fill:white;fill-opacity:0.618624;"/>
                        </g>
                        <g transform="matrix(1,0,0,1,164.3,0)">
                            <path d="M745,0L700,0L1107,642L1152,642L745,0Z" style="fill:white;fill-opacity:0.618624;"/>
                        </g>
                        <g transform="matrix(1,0,0,1,1030.7,0)">
                            <path d="M745,0L700,0L1107,642L1152,642L745,0Z" style="fill:white;fill-opacity:0.618624;"/>
                        </g>
                        <g transform="matrix(1,0,0,1,922.4,0)">
                            <path d="M745,0L700,0L1107,642L1152,642L745,0Z" style="fill:white;fill-opacity:0.618624;"/>
                        </g>
                        <g transform="matrix(1,0,0,1,814.1,0)">
                            <path d="M745,0L700,0L1107,642L1152,642L745,0Z" style="fill:white;fill-opacity:0.618624;"/>
                        </g>
                        <g transform="matrix(1,0,0,1,705.8,0)">
                            <path d="M745,0L700,0L1107,642L1152,642L745,0Z" style="fill:white;fill-opacity:0.618624;"/>
                        </g>
                        <g transform="matrix(1,0,0,1,1139,0)">
                            <path d="M745,0L700,0L1107,642L1152,642L745,0Z" style="fill:white;fill-opacity:0.618624;"/>
                        </g>
                        <g transform="matrix(1,0,0,1,489.2,0)">
                            <path d="M745,0L700,0L1107,642L1152,642L745,0Z" style="fill:white;fill-opacity:0.618624;"/>
                        </g>
                        <g transform="matrix(1,0,0,1,380.9,0)">
                            <path d="M745,0L700,0L1107,642L1152,642L745,0Z" style="fill:white;fill-opacity:0.618624;"/>
                        </g>
                        <g transform="matrix(1,0,0,1,272.6,0)">
                            <path d="M745,0L700,0L1107,642L1152,642L745,0Z" style="fill:white;fill-opacity:0.618624;"/>
                        </g>
                        <g transform="matrix(1,0,0,1,597.5,0)">
                            <path d="M745,0L700,0L1107,642L1152,642L745,0Z" style="fill:white;fill-opacity:0.618624;"/>
                        </g>
                    </g>
                </g>
                <g transform="matrix(0.56457,0,0,-1.68224,12.6652,1080)">
                    <clipPath id="_clip3">
                        <rect x="1118.9" y="0" width="758.1" height="642"/>
                    </clipPath>
                    <g clip-path="url(#_clip3)">
                        <g transform="matrix(1,0,0,1,56,0)">
                            <path d="M745,0L700,0L1107,642L1152,642L745,0Z" style="fill:white;fill-opacity:0.618624;"/>
                        </g>
                        <g transform="matrix(1,0,0,1,164.3,0)">
                            <path d="M745,0L700,0L1107,642L1152,642L745,0Z" style="fill:white;fill-opacity:0.618624;"/>
                        </g>
                        <g transform="matrix(1,0,0,1,1030.7,0)">
                            <path d="M745,0L700,0L1107,642L1152,642L745,0Z" style="fill:white;fill-opacity:0.618624;"/>
                        </g>
                        <g transform="matrix(1,0,0,1,922.4,0)">
                            <path d="M745,0L700,0L1107,642L1152,642L745,0Z" style="fill:white;fill-opacity:0.618624;"/>
                        </g>
                        <g transform="matrix(1,0,0,1,814.1,0)">
                            <path d="M745,0L700,0L1107,642L1152,642L745,0Z" style="fill:white;fill-opacity:0.618624;"/>
                        </g>
                        <g transform="matrix(1,0,0,1,705.8,0)">
                            <path d="M745,0L700,0L1107,642L1152,642L745,0Z" style="fill:white;fill-opacity:0.618624;"/>
                        </g>
                        <g transform="matrix(1,0,0,1,1139,0)">
                            <path d="M745,0L700,0L1107,642L1152,642L745,0Z" style="fill:white;fill-opacity:0.618624;"/>
                        </g>
                        <g transform="matrix(1,0,0,1,489.2,0)">
                            <path d="M745,0L700,0L1107,642L1152,642L745,0Z" style="fill:white;fill-opacity:0.618624;"/>
                        </g>
                        <g transform="matrix(1,0,0,1,380.9,0)">
                            <path d="M745,0L700,0L1107,642L1152,642L745,0Z" style="fill:white;fill-opacity:0.618624;"/>
                        </g>
                        <g transform="matrix(1,0,0,1,272.6,0)">
                            <path d="M745,0L700,0L1107,642L1152,642L745,0Z" style="fill:white;fill-opacity:0.618624;"/>
                        </g>
                        <g transform="matrix(1,0,0,1,597.5,0)">
                            <path d="M745,0L700,0L1107,642L1152,642L745,0Z" style="fill:white;fill-opacity:0.618624;"/>
                        </g>
                    </g>
                </g>
                <g transform="matrix(0.56457,0,0,-1.68224,440.666,1080)">
                    <clipPath id="_clip4">
                        <rect x="1118.9" y="0" width="758.1" height="642"/>
                    </clipPath>
                    <g clip-path="url(#_clip4)">
                        <g transform="matrix(1,0,0,1,56,0)">
                            <path d="M745,0L700,0L1107,642L1152,642L745,0Z" style="fill:white;fill-opacity:0.618624;"/>
                        </g>
                        <g transform="matrix(1,0,0,1,164.3,0)">
                            <path d="M745,0L700,0L1107,642L1152,642L745,0Z" style="fill:white;fill-opacity:0.618624;"/>
                        </g>
                        <g transform="matrix(1,0,0,1,1030.7,0)">
                            <path d="M745,0L700,0L1107,642L1152,642L745,0Z" style="fill:white;fill-opacity:0.618624;"/>
                        </g>
                        <g transform="matrix(1,0,0,1,922.4,0)">
                            <path d="M745,0L700,0L1107,642L1152,642L745,0Z" style="fill:white;fill-opacity:0.618624;"/>
                        </g>
                        <g transform="matrix(1,0,0,1,814.1,0)">
                            <path d="M745,0L700,0L1107,642L1152,642L745,0Z" style="fill:white;fill-opacity:0.618624;"/>
                        </g>
                        <g transform="matrix(1,0,0,1,705.8,0)">
                            <path d="M745,0L700,0L1107,642L1152,642L745,0Z" style="fill:white;fill-opacity:0.618624;"/>
                        </g>
                        <g transform="matrix(1,0,0,1,1139,0)">
                            <path d="M745,0L700,0L1107,642L1152,642L745,0Z" style="fill:white;fill-opacity:0.618624;"/>
                        </g>
                        <g transform="matrix(1,0,0,1,489.2,0)">
                            <path d="M745,0L700,0L1107,642L1152,642L745,0Z" style="fill:white;fill-opacity:0.618624;"/>
                        </g>
                        <g transform="matrix(1,0,0,1,380.9,0)">
                            <path d="M745,0L700,0L1107,642L1152,642L745,0Z" style="fill:white;fill-opacity:0.618624;"/>
                        </g>
                        <g transform="matrix(1,0,0,1,272.6,0)">
                            <path d="M745,0L700,0L1107,642L1152,642L745,0Z" style="fill:white;fill-opacity:0.618624;"/>
                        </g>
                        <g transform="matrix(1,0,0,1,597.5,0)">
                            <path d="M745,0L700,0L1107,642L1152,642L745,0Z" style="fill:white;fill-opacity:0.618624;"/>
                        </g>
                    </g>
                </g>
                <g transform="matrix(0.56457,0,0,-1.68224,868.667,1080)">
                    <clipPath id="_clip5">
                        <rect x="1118.9" y="0" width="758.1" height="642"/>
                    </clipPath>
                    <g clip-path="url(#_clip5)">
                        <g transform="matrix(1,0,0,1,56,0)">
                            <path d="M745,0L700,0L1107,642L1152,642L745,0Z" style="fill:white;fill-opacity:0.618624;"/>
                        </g>
                        <g transform="matrix(1,0,0,1,164.3,0)">
                            <path d="M745,0L700,0L1107,642L1152,642L745,0Z" style="fill:white;fill-opacity:0.618624;"/>
                        </g>
                        <g transform="matrix(1,0,0,1,1030.7,0)">
                            <path d="M745,0L700,0L1107,642L1152,642L745,0Z" style="fill:white;fill-opacity:0.618624;"/>
                        </g>
                        <g transform="matrix(1,0,0,1,922.4,0)">
                            <path d="M745,0L700,0L1107,642L1152,642L745,0Z" style="fill:white;fill-opacity:0.618624;"/>
                        </g>
                        <g transform="matrix(1,0,0,1,814.1,0)">
                            <path d="M745,0L700,0L1107,642L1152,642L745,0Z" style="fill:white;fill-opacity:0.618624;"/>
                        </g>
                        <g transform="matrix(1,0,0,1,705.8,0)">
                            <path d="M745,0L700,0L1107,642L1152,642L745,0Z" style="fill:white;fill-opacity:0.618624;"/>
                        </g>
                        <g transform="matrix(1,0,0,1,1139,0)">
                            <path d="M745,0L700,0L1107,642L1152,642L745,0Z" style="fill:white;fill-opacity:0.618624;"/>
                        </g>
                        <g transform="matrix(1,0,0,1,489.2,0)">
                            <path d="M745,0L700,0L1107,642L1152,642L745,0Z" style="fill:white;fill-opacity:0.618624;"/>
                        </g>
                        <g transform="matrix(1,0,0,1,380.9,0)">
                            <path d="M745,0L700,0L1107,642L1152,642L745,0Z" style="fill:white;fill-opacity:0.618624;"/>
                        </g>
                        <g transform="matrix(1,0,0,1,272.6,0)">
                            <path d="M745,0L700,0L1107,642L1152,642L745,0Z" style="fill:white;fill-opacity:0.618624;"/>
                        </g>
                        <g transform="matrix(1,0,0,1,597.5,0)">
                            <path d="M745,0L700,0L1107,642L1152,642L745,0Z" style="fill:white;fill-opacity:0.618624;"/>
                        </g>
                    </g>
                </g>
            </g>
        </g>
    </g>
</svg>
